<?xml version="1.0" encoding="utf-8"?>
<!-- Generator: Adobe Illustrator 15.0.0, SVG Export Plug-In . SVG Version: 6.00 Build 0)  -->
<!DOCTYPE svg PUBLIC "-//W3C//DTD SVG 1.1//EN" "http://www.w3.org/Graphics/SVG/1.1/DTD/svg11.dtd">
<svg version="1.1" id="Layer_1" xmlns="http://www.w3.org/2000/svg" xmlns:xlink="http://www.w3.org/1999/xlink" x="0px" y="0px"
	 width="1024px" height="1024px" viewBox="0 0 1024 1024" enable-background="new 0 0 1024 1024" xml:space="preserve">
<g>
	<g>
		<defs>
			<path id="SVGID_1_" d="M73.266,39.282c0,0-42.374,0-47.405-1.407C20.829,36.437,8.579,35.812,8.579,52s-4.25,26.783,1.469,38.751
				c5.781,11.938,5.781,35.188,4.344,70.502c-1.438,35.188-10.063,62.688-12.938,87.377c-2.938,24.69-0.75,29.565,0.688,50.752
				c1.438,21.126,2.875,26.813,7.906,50.001c5.031,23.25,15.094,55.002,12.938,64.877c-2.156,9.845-10.781,21.813-4.281,47.222
				c6.438,25.343,17.187,28.842,17.187,40.874c0,11.97-15.812,30.971-21.5,38.034c-5.813,7.093-7.906,7.812-6.531,40.874
				c1.438,33.126,0.719,72.627,0.719,72.627s12.25,7.751,18.719,15.531c6.406,7.721,6.406,47.878,6.406,64.846
				c0,16.875-12.188,42.222-12.188,42.222s-18.625,11.344-16.5,47.969c2.188,36.656,2.156,59.189,2.844,83.846
				c0.719,24.72-2.156,33.813-4.281,50.096c-2.125,16.188,22.25,20.376,25.844,21.783c3.594,1.404,12.968-4.97,22.281,0.717
				c9.312,5.688,10.062,11.313,22.968,7.813c12.906-3.593,23.718-6.376,32.281-6.376c8.625,0,13.688,4.25,23,2.783
				c9.344-1.407,12.219-2.783,12.219-2.783l12.906-0.75c0,0-6.438-2.812,20.125-1.404c26.593,1.404,20.125,6.404,20.125,6.404
				s-5.75-5,24.405-5c30.157,0-2.844,5.657,30.157,6.376c33.062,0.75,38.78,0,48.812-4.25c10.062-4.188,15.124-7.063,20.874-5.625
				c5.75,1.438,19.375,0.688,25.094,2.812c5.78,2.126,12.937,7.063,19.405,7.813c6.438,0.688,17.25,2.062,17.25,2.062l15.031,0.75
				l10.063-4.28c0,0,18.688,35.282,33.063,36.657c14.405,1.437,9.343-13.374,25.092-16.251c15.813-2.813,24.438-1.406,31.625,2.126
				c7.188,3.563,13.625,5.688,17.219,2.844c3.594-2.844,10.781-4.97,10.781-4.97s-2.844,3.563,11.5,7.814
				c14.375,4.25,15.063-2.126,28.688-6.376c13.686-4.252,77.592-7.782,101.311-6.376c23.687,1.437,37.999-0.625,57.436-0.625
				c19.344,0,30.125-0.781,38-5.063c7.938-4.125,16.563-8.313,16.563-8.313s0.75,5.626,20.843,8.313
				c20.094,2.874,30.844,2.874,30.844,2.874s-1.438,0,16.5,2.813c17.999,2.843,60.373,2.124,60.373,2.124l19.375-6.999
				c0,0-17.969-2.907-6.5-10.594c11.5-7.719,30.875-6.345,30.875-6.345s36.688,0,50.343,9.875
				c13.594,9.938,23.655,12.658,23.655,12.658l-0.719-411.543c0,0-24.437,2.749-28.03,0c-3.562-2.874-1.375-9.188,7.906-14.125
				c9.344-4.938,5.781-51.439,5.781-51.439s2.844-36.002,2.844-41.564c0-5.655,0.655-23.279-5.157-31.063
				c-5.688-7.72-21.625-32.406-21.625-35.938c0-3.5,0-5.626,0-5.626s0.813-9.188,5.876-14.063c4.999-5,5.437-12.749,1.813-16.938
				c-3.563-4.25-6.938-14.125,3.093-17.625c10.063-3.562,26.64-9.188,26.64-9.188s4.758-147.94-3.116-191.691
				c-7.938-43.69-7.371-49.346-3.809-57.065c3.688-7.749,4.252-8.5,4.252-8.5s6.438-35.251-2.124-39.438
				c-8.656-4.249-16.625-2.154-23.75-12.001c-7.186-9.813-29.436-9.813-35.248-9.188c-5.688,0.751-33.719,4.281-38.75,1.438
				c-5.031-2.812-15.063-11.282-21.562-8.469c-6.469,2.844-17.25,29.657-25.125,23.97c-7.875-5.626-3.594-25.313-15.063-26.096
				c-11.499-0.719-39.499-0.719-58.124-0.719c-18.749,0-59.687,1.438-72.562-2.062c-12.937-3.562-41.655-7.063-45.937-5.656
				c-4.375,1.406-10.062,9.219-16.562,25.407c-6.438,16.126-21.563,14.063-35.219,14.063c-13.594,0-12.906-16.939-12.906-16.939
				s-64.623-11.968-49.561-14.813c15.123-2.749,19.436-17.499,13.686-19.625C575.195,4.813,526.321,0,488.321,0
				c-38.062,0-53.873,0-64.686,0c-10.719,0,7.25,25.313-22.188,28.813c-29.438,3.5-35.938,4.875-38.094,9.813
				c-2.156,5-35.155,10.188-61.029,10.188c-25.875,0-32.344-2.313-32.344-2.313s-3.594-11.345-17.938-12.063
				C237.701,33.688,73.266,39.282,73.266,39.282L73.266,39.282z M109.859,208.443c0,0,23.687-3.533,41.655-14.128
				c17.938-10.563,39.5-14.063,51-9.125c11.5,4.876,33,21.846,45.218,30.314c12.218,8.437,53.843,38.75,53.843,38.75l7.187,16.22
				c0,0,7.875-1.406,28.719,9.845c20.843,11.25,143.653,92.313,143.653,92.313l278.621,183.975l33.719,26.845l-7.156,4.188
				l18.687,4.25l101.248,66.938c0,0-7.937,55.627-29.437,111.379c-21.563,55.656-17.25,64.064-39.499,73.251
				c-22.25,9.188-113.499-4.938-113.499-4.938L598.194,711.644l-12.25-15.438l-8.594-13.438l-28.717-21.126l-11.5-12.718
				l-31.625-27.471l-9.313-13.375l-5.063-9.875l-18.625-16.251l-13.656-12.625l-90.467-97.316l-58.905-54.938l-38.749-43.001
				l-7.156-2.845l-0.75-8.406L109.859,208.443L109.859,208.443z M606.788,235.224l183.154,138.129l22.218,1.406l-3.563-31.72
				l7.156-19.72l2.875-25.376l5.75-12.687l5-18.314l-3.563-36.656l-60.312-39.501l-45.281,13.439l-48.123,13.343l-33.719,2.155
				C638.382,219.723,606.069,235.942,606.788,235.224L606.788,235.224z M193.389,619.515l203.184,191.068l-59.968,23.563
				l-24.719,4.876l-19.749,13.781l-79,3.53l-47.937-37.438l-38.78-29.751l18.281-55.439L193.389,619.515L193.389,619.515z"/>
		</defs>
		<use xlink:href="#SVGID_1_"  overflow="visible" fill-rule="evenodd" clip-rule="evenodd"/>
		<clipPath id="SVGID_2_">
			<use xlink:href="#SVGID_1_"  overflow="visible"/>
		</clipPath>
	</g>
</g>
</svg>
