<?xml version="1.0" encoding="utf-8"?>
<!-- Generator: Adobe Illustrator 15.0.0, SVG Export Plug-In . SVG Version: 6.00 Build 0)  -->
<!DOCTYPE svg PUBLIC "-//W3C//DTD SVG 1.1//EN" "http://www.w3.org/Graphics/SVG/1.1/DTD/svg11.dtd">
<svg version="1.1" id="Layer_1" xmlns="http://www.w3.org/2000/svg" xmlns:xlink="http://www.w3.org/1999/xlink" x="0px" y="0px"
	 width="1024px" height="1024px" viewBox="0 0 1024 1024" enable-background="new 0 0 1024 1024" xml:space="preserve">
<path fill-rule="evenodd" clip-rule="evenodd" d="M5.372,414.421c59.883,106.703,126.054,201.14,309.662,384.95
	c23.724,23.75,24.212,22.782,54.535,36.348c7.961,3.561,16.038,7.194,24.2,10.876l-7.41,2.959l36.219,90.727
	c3.965-1.647,8.581-3.804,15.952-7.051c23.712-10.438,48.436-21.554,73.47-32.898c25.036,11.345,49.76,22.461,73.47,32.898
	c7.373,3.247,11.987,5.403,15.955,7.051l36.218-90.727l-7.41-2.959c8.164-3.682,16.24-7.315,24.199-10.876
	c30.322-13.565,30.811-12.598,54.537-36.348c183.605-183.81,249.776-278.247,309.66-384.95
	C904.867,406,782.666,446.76,720.008,548.52c-48.133,78.183-82.479,163.665-146.895,218.99c-17.388,9.64-38.213,19.686-61.113,29.94
	c-22.901-10.255-43.724-20.301-61.113-29.94c-64.416-55.325-98.761-140.808-146.895-218.99
	C241.335,446.76,119.135,406,5.372,414.421L5.372,414.421z M635.519,31.658c33.415,18.117,42.334,25.148,55.201,59.486
	c18.799,50.177,27.653,100.771,29.939,151.636c0.427,9.615,0.598,14.089,2.827,23.513c17.981,75.877,12.688,68.223-20.309,141.709
	c-25.369,56.523-25.602,113.972-72.208,166.058c-29.235,32.676-70.39,46.945-111.845,46.104
	c-42.212-0.855-84.74-17.384-115.322-46.104c-51.336-48.213-46.838-109.535-72.208-166.058
	c-32.994-73.486-38.291-65.833-20.309-141.709c2.232-9.424,2.401-13.897,2.83-23.513c2.285-50.865,11.137-101.459,29.94-151.636
	c12.864-34.338,21.786-41.37,55.196-59.486C477.1-10.553,557.67-10.553,635.519,31.658L635.519,31.658z M440.658,439.834
	c10.812-0.665,10.198,33.171,14.604,64.417c4.093,29.032,11.507,56.904,9.917,57.351c-6.738,1.909-20.63-48.183-21.603-52.108
	C435.348,476.395,428.674,440.571,440.658,439.834L440.658,439.834z M517.668,440.555c12.37,0.401,11.157,37.622,8.464,73.385
	c-2.344,31.109-5.42,61.293-8.04,63.731c-0.371,0.346-1.115,0.321-1.4,0.012c-2.389-2.58-5.705-32.576-8.052-63.743
	c-2.696-35.763-3.904-72.984,8.463-73.385c0.099-0.002,0.188,0.004,0.284,0.004C517.48,440.559,517.574,440.552,517.668,440.555
	L517.668,440.555z M556.715,439.834c12.968,0.794,9.053,39.37,3.215,75.013c-0.692,4.226-11.08,58.165-18.511,56.114
	c-1.753-0.484,3.688-30.497,5.444-61.76C548.76,475.554,545.012,439.118,556.715,439.834L556.715,439.834z M594.113,439.834
	c11.982,0.737,5.31,36.561-2.918,69.66c-0.973,3.925-14.863,54.017-21.603,52.108c-1.591-0.447,5.823-28.319,9.916-57.351
	C583.915,473.005,583.306,439.169,594.113,439.834L594.113,439.834z M478.056,439.834c11.703-0.716,7.957,35.72,9.851,69.367
	c1.76,31.263,7.198,61.275,5.445,61.76c-7.428,2.051-17.818-51.889-18.508-56.114C469.003,479.204,465.086,440.628,478.056,439.834
	L478.056,439.834z M517.384,277.985l-19.324-34.831c-4.564-8.224-6.452-7.047-3.839,2.712c2.886,10.779,4.26,19.213,6.158,29.777
	c0.897,5-0.739,8.042-8.282,7.744c-31.082-1.233-51.492-21.133-83.565-23.479c-23.682-2.464-68.787,6.521-58.447,43.313
	c8.213,29.224,57.717,52.274,87.372,34.151c23.438-14.313,25.676-31.879,44.747-40.365c8.107-3.609,13.351-4.394,21.937-4.394
	h13.358h13.136c8.584,0,13.83,0.785,21.936,4.394c19.07,8.486,21.313,26.052,44.751,40.365
	c29.651,18.123,79.158-4.927,87.369-34.151c10.34-36.792-34.765-45.776-58.45-43.313c-32.072,2.346-52.482,22.246-83.562,23.479
	c-7.544,0.298-9.184-2.743-8.285-7.744c1.9-10.563,3.271-18.998,6.156-29.777c2.617-9.759,0.729-10.938-3.837-2.712L517.384,277.985
	L517.384,277.985z M536.504,865.675l66.898-29.829l0,0l36.751-16.391c18.299-8.157,26.681-6.283,30.249-0.965l-52.222,23.292
	l-0.004-0.004l-78.987,35.225l-106.771,47.611l-4.661-10.444L536.504,865.675L536.504,865.675z M411.746,943.967
	c-4.87,1.298-11.212,2.629-21.643,4.708c-3.933,0.785-7.863,1.559-11.8,2.327l-28.528-86.864c8.58-3.431,17.253-6.885,25.967-10.356
	L411.746,943.967L411.746,943.967z M366.962,953.179c-86.057,16.354-172.373,28.342-261.586,40.219
	c-6.667,0.887-14.73,3.972-23.122,7.897l-6.142-73.583c4.476-0.253,8.968-0.749,13.495-1.575
	c71.112-12.976,144.028-18.474,212.445-42.705c11.991-4.935,24.402-9.951,37.064-15.03L366.962,953.179L366.962,953.179z
	 M71.21,1006.793c-9.416,4.898-18.667,10.123-26.292,13.826c-13.214,6.416-20.208,2.349-24.563-1.123
	c-12.244-9.75-16.825-65.804-14.325-81.759c1.988-12.683,13.798-13.655,22.064-12.87c12.421,1.181,24.476,2.727,36.527,3.011
	L71.21,1006.793L71.21,1006.793z M612.257,943.967l36.002-90.186c8.716,3.472,17.388,6.926,25.969,10.356l-28.532,86.864
	c-3.935-0.769-7.865-1.542-11.796-2.327C623.467,946.596,617.127,945.265,612.257,943.967L612.257,943.967z M657.04,953.179
	l27.844-84.777c12.663,5.079,25.074,10.096,37.065,15.03c68.416,24.231,141.332,29.729,212.446,42.705
	c4.525,0.826,9.017,1.322,13.493,1.575l-6.141,73.583c-8.395-3.926-16.454-7.011-23.124-7.897
	C829.411,981.521,743.096,969.533,657.04,953.179L657.04,953.179z M952.791,1006.793l6.589-78.915
	c12.052-0.284,24.104-1.83,36.527-3.011c8.265-0.785,20.076,0.188,22.063,12.87c2.498,15.955-2.08,72.009-14.323,81.759
	c-4.354,3.472-11.348,7.539-24.564,1.123C971.457,1016.916,962.207,1011.691,952.791,1006.793z"/>
</svg>
