<?xml version="1.0" encoding="utf-8"?>
<!-- Generator: Adobe Illustrator 15.0.0, SVG Export Plug-In . SVG Version: 6.00 Build 0)  -->
<!DOCTYPE svg PUBLIC "-//W3C//DTD SVG 1.1//EN" "http://www.w3.org/Graphics/SVG/1.1/DTD/svg11.dtd">
<svg version="1.1" id="Layer_1" xmlns="http://www.w3.org/2000/svg" xmlns:xlink="http://www.w3.org/1999/xlink" x="0px" y="0px"
	 width="1024px" height="1024px" viewBox="0 0 1024 1024" enable-background="new 0 0 1024 1024" xml:space="preserve">
<path fill-rule="evenodd" clip-rule="evenodd" d="M455.362,1024c0,0-176.941-117.077-194.951-154.617c0,0-0.366-0.188-0.366-0.216
	c20.712-18.791,53.691-17.521,76.579-20.15l78.51,101.477l-60.771-108.987V744.5h101V1024L455.362,1024z M597.894,258.605
	l243.386-0.09l12.204,9.516L959.089,230.5H585.117l-78.933,78h0.541L597.894,258.605L597.894,258.605z M839.193,277.5l18.04,15.602
	L969.035,230.5h2.465L846.718,337.927L823.406,308.5H509.248l71.353-31H839.193L839.193,277.5L839.193,277.5z M554.955,562.766
	c-22.694-56.091-24.601-137.356-4.909-195.131l20.11-0.091c0,0-36.679,127.444,25.338,225.576
	c54.157,85.697,172.049,121.999,266.054,91.042C572.015,691.063,648.705,321.5,648.705,321.5H514.412
	c0,0-69.358,160.926,5.064,281.616C660.797,832.31,874.114,686.5,874.22,684.5h-7.603C798.048,711.5,649.819,744.08,554.955,562.766
	L554.955,562.766z M376.538,307.5H95.362c0,0,0-0.9,0-2.128c13-20.868,36.488-30.872,36.488-30.872h246.944l32.701,14.693
	l96.058-50.579l-90.421,106.36l-40.68-37.475H376.538z M130.76,261.5c-19.357,0-29.397,22.239-35.397,35.373
	c0-7.625,0-18.727,0-30.962c0-22.553,26.343-32.411,26.343-32.411h385.777l-99.934,36.742l-22.55-8.742H130.724h-0.086H130.76z
	 M487.365,728.5c37.241,0,47.304-45.064,32.989-62.279L236.719,324.5H101.407l266.863,325c0,0-118.771,0-155.608,0
	c-36.838,0-63.331-28.369-63.331-28.369L52.5,728.5C52.5,728.5,433.99,728.5,487.365,728.5L487.365,728.5z M158.171,691.046
	L80.33,718.171l63.845-38.497l9.62-40.242L158.171,691.046L158.171,691.046L158.171,691.046z M431.383,632.002
	c7.002,10.196,14.205,18.937,8.359,31.754c-9.907,21.729-51.348,19.246-51.348,19.246c40.816-18.501,12.997-53.999,12.997-53.999
	L194.622,374.947l-67.653-37.598l-2.257-2.254l86.449,32.331C211.161,367.426,426.566,624.991,431.383,632.002L431.383,632.002z
	 M547.362,1024V667.565c33,35.542,67,56.867,102,68.484v105.456l-61.142,108.987l78.305-101.477
	c22.887,2.63,55.744,1.359,76.458,20.15c0,0.028-0.48,0.216-0.48,0.216C724.496,906.923,594.362,1024,547.362,1024L547.362,1024z
	 M649.362,218.5h-69.073l-32.927,27.065v-189.8c1-2.68,122.16-55.622,132.001-55.764c11.753-0.167,49.957,13.485,90.969,25.348
	l98.896,26.243l12.029,6.387l-0.014,2.026c-18.003,15.476-49.814,24.493-68.005,36.244c-32.819,21.194-64.877,58.059-67.877,108.754
	v12.999l-76,0.087v-83.981c0-82.998,147.212-73.291,196.915-76.107c-53.117-0.984-187.15-13.641-212.488,48.46l-90.9-43.09
	l86.474,58.298V218.5L649.362,218.5z M669.362,321.5v207.955c12,44.092,35,85.685,76,111.812V321.5H669.362L669.362,321.5z
	 M669.362,741.877c0,6.164,52,7.056,76,4.793v115.112c-7-9.9-29-24.149-76-22.812V741.877L669.362,741.877z M354.362,441.478V323.5
	h16.083l35.984,33.133l12.047,11.062l10.654-12.534l26.084-30.661h0.147v239.012L354.362,441.478L354.362,441.478z M354.552,217.5
	l-0.232-96.068l86.148-58.18l-91.219,43.15c-25.335-62.101-159.726-49.114-212.843-48.129c49.703,2.812,197.64-7.092,197.64,75.903
	l0.233,83.325h-76.016l-0.234-12.426c-2.534-50.694-35.305-87.745-68.124-108.943c-18.195-11.757-50.543-19.817-68.543-35.293
	v-2.535l12.515-6.71l98.856-26.243c41.009-11.863,79.451-25.515,91.199-25.344c9.841,0.138,131.264,52.843,131.748,55.523
	l0.222,161.971H354.552L354.552,217.5z M334.362,323.5h-76v2.038l76,91.528V323.5L334.362,323.5z M334.362,632.607v0.893h-76
	v-93.425L334.362,632.607L334.362,632.607z M334.362,744.5h-76v117.282c6-9.9,29-24.149,76-22.812V744.5z"/>
</svg>
