<?xml version="1.0" encoding="utf-8"?>
<!-- Generator: Adobe Illustrator 17.0.0, SVG Export Plug-In . SVG Version: 6.00 Build 0)  -->
<!DOCTYPE svg PUBLIC "-//W3C//DTD SVG 1.1//EN" "http://www.w3.org/Graphics/SVG/1.1/DTD/svg11.dtd">
<svg version="1.1" id="Layer_1" xmlns="http://www.w3.org/2000/svg" xmlns:xlink="http://www.w3.org/1999/xlink" x="0px" y="0px"
	 width="1024px" height="1024px" viewBox="0 0 1024 1024" enable-background="new 0 0 1024 1024" xml:space="preserve">
<path fill-rule="evenodd" clip-rule="evenodd" d="M830.197,352.08c-1.221-5.228-4.965-9.273-7.313-13.708
	c1.082-2.039,1.526-2.75,2.742-4.569c4.049,1.945,12.655,0.915,18.278,0.915c-1.896,3.581-4.081,5.689-6.555,8.98
	C833.732,348.507,833.721,351.136,830.197,352.08L830.197,352.08z M241.494,723.699c0,34.582-24.852,43.782-54.622,43.782H53.546
	C25.263,767.481,0,755.913,0,723.699V589.905c0-29.146,28.489-42.533,53.906-42.533h132.965c16.77,0,30.068,3.056,39.891,9.163
	c9.82,6.111,14.732,21.509,14.732,34.448H45.711v133.073h150.165v-47.668h-57.161c-14.346,0-26.784-3.012-37.193-8.984
	c-10.409-5.977-17.43-13.339-17.43-22.282v-6.828h157.402V723.699L241.494,723.699z M529.428,447.661
	c0,12.919-5.33,28.874-15.991,34.981c-10.661,6.108-24.616,9.164-41.866,9.164H343.636c-7.188,0-14.197-0.777-21.024-2.336
	c-6.828-1.559-12.938-3.951-18.327-7.185c-5.39-3.235-9.705-7.133-12.936-11.683c-3.233-4.545-4.854-16.353-4.854-22.583H481.96
	v-40.189H341.12c-31.815,0-54.624-8.716-54.624-44.503v-36.772c0-7.19,1.53-21.46,4.494-26.701
	c2.962-5.241,7.039-9.615,12.036-12.935c5.001-3.325,10.874-5.843,17.432-7.369c6.558-1.526,13.597-2.335,21.023-2.335h130.809
	c17.25,0,31.087,2.934,41.506,8.805c10.42,5.868,15.633,23.527,15.633,36.943H330.42v40.364h141.508
	c30.666,0,57.499,5.526,57.499,41.988V447.661L529.428,447.661z M46.124,322.962v125.057c60.509,0,134.613,0.31,195.352,0.31
	c-0.183,6.673-1.617,17.452-4.295,21.916c-2.871,4.789-6.767,8.745-11.678,11.861c-4.912,3.113-10.722,5.449-17.43,7.007
	c-6.708,1.554-13.776,2.336-21.202,2.336H53.546C24.884,491.447,0,479.484,0,447.661V321.883c0-25.448,32.489-44.669,53.906-44.669
	h132.965c16.77,0,30.186,3.235,40.248,9.705c10.061,6.465,15.094,23.824,15.094,36.043
	C181.48,322.962,106.856,322.962,46.124,322.962L46.124,322.962z M527.271,724.777c0,34.411-24.683,42.704-54.983,42.704H339.323
	c-28.798,0-53.546-11.422-53.546-43.425V589.905c0-30.375,27.112-42.533,53.546-42.533h132.965c29.301,0,54.983,9.493,54.983,43.249
	V724.777L527.271,724.777z M481.96,590.983H330.42v133.073h151.54V590.983L481.96,590.983z M1024,304.863v-6.547h-18.799v-2.974
	h-2.498v1.485h-2.559v1.489h-35.885v-4.598v-0.871h1.371v-3.809h-2.62v2.019h-4.757v-3.707h-2.62v-19.991h-4.403v23.698h-4.061
	v-5.688H818.315v-4.569h-7.308l-0.916-11.878c-5.204,0.118-4.387,1.478-4.565,6.401c-0.203,5.664-1.709,3.56-1.831,9.135
	c-10.66,0-5.66,0.643-11.039,1.754c-0.899,0.183-1.367,0.033-2.462,0.277l-16.138,3.19c0.212-0.444,2.275-1.746,2.385-2.23
	c0.915-4.065-1.99-9.391-1.99-14.872c4.171-0.346,9.457-2.303,12.605-4.757c6.828-5.322,3.44-23.535,1.221-30.086
	c-0.768-2.271-1.448-3.898-2.132-6.161c-1.029-3.406-0.134-2.673,0.188-6.515l-3.442-2.958c-1.628-1.079-3.145-1.798-4.781-2.527
	c-16.183-7.186-14.01-12.793-37.467-12.793c-26.07,0-42.953,27.498-42.953,52.087c0,5.753,3.386,13.188,4.569,18.278l-3.857,3.455
	c-5.615-3.638-4.618-5.282-12.589-5.282c-9.087,0-17.977,3.63-23.414,7.658c-4.508,3.341-11.601,11.491-14.611,16.459
	c-7.865,12.968-13.151,34.103-13.151,53.557c0,8.626,1.827,12.992,1.827,21.936c-3.617,0.297-5.604,1.591-9.127,1.835
	c-6.522,0.452-14.209-1.986-15.978,5.953c-1.575,7.051-0.473,24.878-2.08,32.65c-1.668,8.061-2.97,16.662-2.97,25.358
	c7.218,0.598,12.976,3.654,21.017,3.654v0.915c-3.264,0-7.104,2.042-9.343,3.451c-7.352,4.626-5.277,10.465-5.277,18.478
	c0,4.781,0.472,7.145,1.277,11.515c1.733,9.428,3.292,25.253,3.292,35.091c-4.342-2.079-6.836,0.025-8.154,3.732
	c-0.903,2.539-2.576,8.955-2.811,11.808c1.978,1.323,3.153,1.726,4.565,3.654c-6.299,9.411-3.26,6.47-1.481,11.552
	c1.355,3.878-0.342-0.036-0.342,4.895c0,9.302,6.079-1.221,1.754,20.036c-2.804,13.777-7.576,34.248-5.046,48.136
	c2.462,13.518-2.848,12.472-6.9,23.075c-1.25,3.275-0.659,3.968-3.272,6.779c-4.879,5.253-8.943,12.639-12.142,18.934
	c-10.082,19.857-4.793,23.519-9.11,32.011c-5.086,9.993-10.978,14.767-10.978,30.143c0,4.715,0.813,7.222,4.569,8.223
	c-0.175,7.891-8.68,36.397-11.138,45.524c-4.564,16.956-3.018,15.784-1.655,32.153c6.132,1.428,13.184,2.404,20.337,2.738h10.62
	c4.838-0.24,9.533-0.826,13.822-1.827c0.195-8.915,1.929-9.81-2.015-18.087c-3.45-7.246-1.533-21.765-0.688-29.391
	c0.717-6.42,5.14-16.349,8.122-22.029c2.47-4.699,1.497-1.591,6.071-3.987c2.185-1.143,3.617-3.072,4.613-5.437
	c3.248-7.698,4.586-15.572,8.261-22.815c2.348-4.635,4.708-8.956,6.71-13.392c9.818-21.749,1.392-23.038,5.782-31.661
	c2.237-4.382,3.027-10.278,7.165-12.959c8.231-5.331,7.536-14.222,12.606-17.555c2.271-1.497,4.375-1.257,6.133-3.918
	c1.058-1.6,1.754-5.42,2.323-7.727c2.8-11.313-0.985-6.234,6.478-24.594c6.616-16.28,4.008-16.451,14.132-26.994
	c4-4.17,5.119-8.04,6.6-14.416l3.052,5.176c8.578,17.439,14.417,7.189,20,13.811c1.118,1.33,2.571,3.91,3.633,5.505
	c2.467,3.698,4.48,6.722,6.946,10.421c20.654,30.977,15.296,30.884,37.65,30.884c4.973,9.399,5.225,4.093,3.724,17.432
	c-0.473,4.183,0.374,7.483-1.359,10.519c-4.464,7.824-4.191,1.062-4.191,14.087c0,12.37,1.021,30.473,4.907,41.699
	c1.221,3.527,2.401,9.749,2.401,14.046c2.177,1.457,0.951,1.107,3.658,1.827c0,7.458,0.984,11.625,0.915,18.278
	c-0.061,5.807,1.876,12.797,0.777,18.14c-0.933,4.528-1.542-1.102-4.956,14.237c-1.648,7.389-3.133,14.404-3.133,22.453
	c9.321,6.241,14.144,2.742,26.501,2.742c5.921,0,13.037,3.621,19.182,4.578c15.885,2.465,20.882,1.351,34.708,0.879
	c5.331-0.184,7.023-0.888,11.906-0.888c0.939-4.028,2.556-12.22-1.245-15.206l-9.392-5.228c-3.454-1.717-2.421-0.92-6.367-1.859
	c-4.944-1.176-6.759-2.8-9.726-5.807c-1.433-1.448-2.233-2.193-3.67-3.642l-10.486-12.357c-3.146-3.602-3.223-5.729-3.991-11.544
	c-1.228-9.285,0.098-18.269,0.098-29.346c1.334-4.387,4.569-1.343,4.569-17.362c0-6.706-2.942-12.984-2.25-17.717
	c3.304-22.566,5.908-37.415,5.908-61.788c0-6.392-2.229-5.835-3.333-9.461c-0.761-2.49-0.459-8.223-1.236-11.556
	c-6.909,0-5.709-2.592-9.014-12.007c-8.915-25.412-20.076-48.585-36.129-69.878l-9.903-11.112c-1.677-2.222-1.896-5.647-2.454-8.513
	c-3.063-15.694-1.867-4.765,0.839-16.378c4.451,1.038,8.862,3.654,13.708,3.654c16.272-24.3,7.186-20.398,11.516-44.226
	c0.606-3.324,1.6-23.014,0.96-25.818c-1.692-7.405-6.25-13.358-14.302-14.026c1.33-5.701,3.657-6.05,3.657-13.708
	c10.763,5.697,21.317,11.874,32.606,16.74c5.367,2.315,9.835,3.959,15.849,4.256c7.886,0.387,11.227,6.23,21.7-3.841
	c14.681-14.103,14.962-5.941,20.247-32.756c0.659-3.333,1.628-5.872,1.893-9.074c3.34-0.277,7.52-1.937,10.966-2.743
	c-3.979-8.297-5.482-22.778-5.482-32.898c2.8-1.343,2.674-0.183,4.777-2.531c1.249-1.396,1.298-2.242,3.19-4.122
	c3.234-3.219,5.603-2.645,5.741-8.879c6.909-0.154,3.243-2.742,7.313-2.742h52.087v-7.922h0.203h3.857v0.456v1.827h13.029v-2.283
	h35.885v1.485h2.559v1.489h2.498v-2.974H1024L1024,304.863z M830.197,331.059h2.742v0.915h-2.742V331.059L830.197,331.059z
	 M843.905,331.975h-9.139c0.301-3.605,0.915-4.285,0.915-9.139c12.924-3.011,10.967,0.448,10.967,6.397
	C846.648,331.34,846.009,331.975,843.905,331.975z"/>
</svg>
