<?xml version="1.0" encoding="utf-8"?>
<!-- Generator: Adobe Illustrator 15.0.0, SVG Export Plug-In . SVG Version: 6.00 Build 0)  -->
<!DOCTYPE svg PUBLIC "-//W3C//DTD SVG 1.1//EN" "http://www.w3.org/Graphics/SVG/1.1/DTD/svg11.dtd">
<svg version="1.1" id="Layer_1" xmlns="http://www.w3.org/2000/svg" xmlns:xlink="http://www.w3.org/1999/xlink" x="0px" y="0px"
	 width="1024px" height="1024px" viewBox="0 0 1024 1024" enable-background="new 0 0 1024 1024" xml:space="preserve">
<path fill-rule="evenodd" clip-rule="evenodd" d="M209.346,902l122.504-88.771c11.051-7.93,14.15-10.415,14.15-24.613
	c0-191.345,0-369.78,0-561.829c0-14.484-0.431-17.115-11.625-27.14L240.219,122h198.09h198.09l-93.965,77.646
	C531.242,209.671,531,212.302,531,226.786V737.27c61,9.904,114.629,22.187,193.748-0.61
	c67.947-19.576,135.024-69.833,192.334-107.536C898.262,725.1,855.046,813,813.698,902C612.246,902,410.796,902,209.346,902
	L209.346,902z M17.443,29C7.849,29,0,36.795,0,46.39V977.61C0,987.205,7.849,995,17.443,995h989.113
	c9.6,0,17.443-7.795,17.443-17.39V46.39c0-9.595-7.844-17.39-17.443-17.39H17.443L17.443,29z M49.215,72
	C47.017,72,45,73.404,45,75.603v872.8c0,2.194,2.017,3.598,4.215,3.598h925.578c2.193,0,4.207-1.403,4.207-3.598v-872.8
	c0-2.198-2.014-3.603-4.207-3.603H49.215L49.215,72z M481.009,799.883l-19.01,8.553c124.89,18.661,226.367,26.655,287.104,12.921
	c55.074-12.457,93.983-53.734,132.343-133.697c-47.649,66.224-89.408,106.569-125.166,117.902
	C697.424,824.227,576.838,812.743,481.009,799.883L481.009,799.883z M463,225.613l109.455-68.396L442,211.258v403.383v188.052
	l21-10.76V225.613L463,225.613z M429,241.04v-31.354l-117.219-51.994L429,241.04L429,241.04z M426,810.007v-14.488l-88.518,55.469
	L426,810.007z"/>
</svg>
