<?xml version="1.0" encoding="utf-8"?>
<!-- Generator: Adobe Illustrator 15.0.0, SVG Export Plug-In . SVG Version: 6.00 Build 0)  -->
<!DOCTYPE svg PUBLIC "-//W3C//DTD SVG 1.1//EN" "http://www.w3.org/Graphics/SVG/1.1/DTD/svg11.dtd">
<svg version="1.1" id="Layer_1" xmlns="http://www.w3.org/2000/svg" xmlns:xlink="http://www.w3.org/1999/xlink" x="0px" y="0px"
	 width="1024px" height="1024px" viewBox="0 0 1024 1024" enable-background="new 0 0 1024 1024" xml:space="preserve">
<path fill-rule="evenodd" clip-rule="evenodd" d="M512,0c282.756,0,512,229.24,512,512c0,282.756-229.244,512-512,512
	C229.24,1024,0,794.756,0,512C0,229.24,229.24,0,512,0L512,0z M468.132,989.516v-74.797
	C265.042,892.848,106.909,720.899,106.909,512c0-171.875,107.044-318.73,258.094-377.58l10.345,42.704
	C253.835,229.936,168.852,334.16,168.852,491.96c0,157.797,130.351,318.547,299.15,340.089V717.998l36.997-108
	c3.001-10.002,10.582-10.201,14.004,0l36.995,108v114.083c168.799-21.542,299.15-182.324,299.15-340.121
	c0-157.8-84.981-262.024-206.494-314.836l10.343-42.704C810.047,193.27,917.091,340.125,917.091,512
	c0,208.899-158.13,380.848-361.223,402.719v74.797C802.361,967.164,991.505,759.807,991.505,512
	c0-264.828-214.677-479.505-479.505-479.505C247.172,32.495,32.497,247.172,32.497,512
	C32.497,759.807,221.641,967.164,468.132,989.516z"/>
</svg>
